<svg height="512pt" viewBox="0 -20 512.00011 512" width="512pt" xmlns="http://www.w3.org/2000/svg"><path d="m417.292969 212.394531c0 113.160157-91.734375 204.898438-204.898438 204.898438-113.160156 0-204.894531-91.738281-204.894531-204.898438 0-113.160156 91.734375-204.894531 204.894531-204.894531 113.164063 0 204.898438 91.734375 204.898438 204.894531zm0 0" fill="#74e2cd"/><path d="m417.296875 212.398438c0 113.15625-91.746094 204.890624-204.902344 204.890624-4.273437 0-8.515625-.132812-12.730469-.398437 107.230469-6.5625 192.160157-95.609375 192.160157-204.492187 0-108.894532-84.929688-197.945313-192.160157-204.503907 4.214844-.265625 8.457032-.398437 12.730469-.398437 113.15625 0 204.902344 91.734375 204.902344 204.902344zm0 0" fill="#4fceb7"/><g fill="#627687"><path d="m496.085938 335.808594c-2.03125 5.257812-7.9375 7.871094-13.191407 5.839844l-9.988281-3.859376c-54.582031-21.089843-114.382812-37.445312-177.742188-48.617187-63.355468-11.171875-125.144531-16.253906-183.648437-15.105469l-10.703125.210938c-5.636719.109375-10.292969-4.367188-10.402344-10l-.417968-21.410156c-.113282-5.632813 4.367187-10.289063 10-10.398438l10.703124-.210938c61.207032-1.199218 125.714844 4.09375 191.730469 15.734376 66.019531 11.640624 128.449219 28.726562 185.550781 50.789062l9.988282 3.859375c5.253906 2.03125 7.871094 7.9375 5.839844 13.191406zm0 0"/><path d="m446.921875 397.441406c-2.03125 5.253906-7.9375 7.867188-13.191406 5.835938l-9.988281-3.859375c-43.152344-16.667969-90.664063-29.644531-141.21875-38.558594-50.550782-8.914063-99.636719-12.972656-145.886719-12.0625l-10.707031.207031c-5.632813.113282-10.289063-4.363281-10.398438-10l-.417969-21.40625c-.113281-5.632812 4.363281-10.289062 9.996094-10.402344l10.707031-.207031c48.953125-.960937 100.753906 3.308594 153.96875 12.691407 53.214844 9.382812 103.355469 23.085937 149.027344 40.734374l9.988281 3.855469c5.253907 2.03125 7.871094 7.9375 5.839844 13.195313zm0 0"/><path d="m145.269531 414.34375-.417969-21.410156c-.109374-5.632813 4.367188-10.289063 10-10.398438l10.703126-.210937c34.804687-.683594 73.382812 2.511719 111.558593 9.246093 38.171875 6.730469 75.515625 16.917969 107.992188 29.464844l9.984375 3.859375c5.257812 2.03125 7.871094 7.9375 5.839844 13.191407l-7.714844 19.976562c-2.03125 5.253906-7.9375 7.867188-13.191406 5.835938l-9.988282-3.859376c-29.992187-11.585937-64.632812-21.023437-100.183594-27.289062-35.550781-6.269531-71.332031-9.25-103.476562-8.621094l-10.703125.210938c-5.636719.113281-10.289063-4.363282-10.402344-9.996094zm0 0"/></g><path d="m387.148438 120.546875c1.34375 2.550781 3.945312 4.003906 6.640624 4.003906 1.179688 0 2.375-.277343 3.492188-.863281 3.664062-1.933594 5.066406-6.46875 3.136719-10.132812-7.285157-13.824219-16.109375-26.863282-26.234375-38.753907-2.683594-3.15625-7.417969-3.535156-10.570313-.851562-3.15625 2.6875-3.535156 7.417969-.851562 10.574219 9.410156 11.054687 17.613281 23.175781 24.386719 36.023437zm0 0"/><path d="m15 212.394531c0-108.84375 88.550781-197.394531 197.394531-197.394531 46.960938 0 92.464844 16.78125 128.136719 47.25 3.148438 2.6875 7.882812 2.316406 10.570312-.832031 2.691407-3.148438 2.320313-7.882813-.832031-10.574219-38.378906-32.785156-87.347656-50.84375-137.875-50.84375-117.113281 0-212.394531 95.28125-212.394531 212.394531 0 46.15625 14.554688 90.050781 42.089844 126.9375 1.472656 1.972657 3.730468 3.015625 6.015625 3.011719 1.5625 0 3.136719-.480469 4.480469-1.488281 3.320312-2.476563 4.003906-7.175781 1.523437-10.496094-25.585937-34.277344-39.109375-75.066406-39.109375-117.964844zm0 0"/><path d="m510.476562 304.992188c-1.914062-4.320313-5.398437-7.640626-9.808593-9.34375l-9.988281-3.859376c-23.484376-9.074218-47.871094-17.296874-73.015626-24.667968 4.726563-17.773438 7.128907-36.152344 7.128907-54.726563 0-23.164062-3.722657-45.964843-11.0625-67.769531-1.324219-3.929688-5.578125-6.035156-9.5-4.71875-3.925781 1.324219-6.039063 5.578125-4.714844 9.503906 6.820313 20.257813 10.277344 41.449219 10.277344 62.984375 0 17.179688-2.207031 34.175781-6.554688 50.613281-32.0625-8.875-65.304687-16.371093-99.507812-22.402343-66.496094-11.722657-131.496094-17.046875-193.183594-15.84375l-10.703125.207031c-4.726562.09375-9.136719 2.023438-12.414062 5.429688-3.277344 3.410156-5.03125 7.890624-4.9375 12.617187l.421874 21.410156c.09375 4.726563 2.019532 9.136719 5.429688 12.410157 3.40625 3.277343 7.894531 5.023437 12.613281 4.9375l10.707031-.207032c58.023438-1.148437 119.324219 3.90625 182.199219 14.992188 29.773438 5.25 58.742188 11.667968 86.75 19.171875-3.054687 4.957031-6.332031 9.792969-9.808593 14.457031-25.644532-7.070312-52.273438-13.054688-79.714844-17.894531-53.691406-9.46875-105.984375-13.773438-155.417969-12.804688l-10.707031.207031c-4.726563.09375-9.132813 2.023438-12.410156 5.429688-3.277344 3.410156-5.03125 7.890625-4.9375 12.617188l.417968 21.410156c.09375 4.726562 2.019532 9.136718 5.429688 12.410156 3.410156 3.28125 7.917968 5.019531 12.617187 4.941406l10.703125-.210937c45.773438-.902344 94.363282 3.121093 144.441406 11.953125 13.871094 2.445312 27.5 5.210937 40.878907 8.265625-6.679688 4.46875-13.621094 8.535156-20.761719 12.148437-7.589844-1.625-15.242188-3.125-22.929688-4.480468-38.640624-6.8125-77.722656-10.050782-113.003906-9.355469l-10.707031.207031c-9.757813.191406-17.539063 8.289062-17.351563 18.046875l.039063 1.949219c-23.066406-9.511719-44.492187-23.550782-62.457031-40.988282-2.96875-2.882812-7.71875-2.8125-10.601563.160157-2.886719 2.972656-2.816406 7.71875.15625 10.605469 20.875 20.261718 46.105469 36.25 73.222657 46.460937l.0625 3.222656v-.003906c.09375 4.730469 2.019531 9.136719 5.429687 12.414063 3.40625 3.277343 7.875 5.003906 12.617187 4.9375l10.703126-.210938c31.667968-.628906 66.949218 2.320312 102.027343 8.507812 35.078125 6.183594 69.238281 15.488282 98.78125 26.902344l9.988281 3.859375c2.070313.796875 4.226563 1.195313 6.382813 1.195313 2.4375 0 4.867187-.507813 7.160156-1.523438 4.324219-1.914062 7.644531-5.394531 9.347657-9.808594l7.71875-19.972656c3.515624-9.105468-1.027344-19.375-10.132813-22.894531l-9.988281-3.855469c-20.070313-7.753906-41.96875-14.613281-64.761719-20.332031 6.316406-3.863281 12.4375-8.050781 18.3125-12.546875 27.882813 7.105469 54.542969 15.539062 79.683594 25.253906l9.988281 3.859375c2.070312.800781 4.230469 1.199219 6.386719 1.199219 2.433593 0 4.863281-.511719 7.15625-1.523438 4.324219-1.914062 7.644531-5.398437 9.347656-9.808593l7.71875-19.976563c1.703125-4.410156 1.585937-9.21875-.328125-13.542968-1.914062-4.324219-5.394531-7.644532-9.808594-9.347657l-9.984375-3.859375c-17.816406-6.882812-36.308593-13.164062-55.378906-18.835937 3.359375-4.773438 6.539063-9.6875 9.488281-14.703125 25.777344 7.363281 50.683594 15.679687 74.578125 24.910156l9.988281 3.859375c2.070313.796875 4.226563 1.199219 6.382813 1.199219 2.4375 0 4.867187-.511719 7.160156-1.527344 4.324219-1.914062 7.644531-5.394531 9.347657-9.804688l7.71875-19.976562c1.699218-4.40625 1.585937-9.214844-.328126-13.539062zm-118.089843 126.898437c1.390625.535156 2.082031 2.101563 1.546875 3.492187l-7.71875 19.976563c-.347656.90625-1.042969 1.328125-1.425782 1.496094-.382812.171875-1.160156.398437-2.066406.050781l-9.988281-3.859375c-30.433594-11.757813-65.5625-21.328125-101.582031-27.683594-32.859375-5.792969-65.9375-8.8125-96.257813-8.8125-2.914062 0-5.804687.027344-8.667969.082031l-10.703124.210938c-.964844.039062-1.625-.464844-1.925782-.753906-.300781-.289063-.8125-.921875-.828125-1.894532l-.421875-21.40625c-.027344-1.492187 1.160156-2.726562 2.648438-2.757812l10.703125-.207031c34.335937-.679688 72.40625 2.484375 110.109375 9.128906 37.707031 6.648437 74.5625 16.707031 106.589844 29.078125zm53.710937-60.621094c.910156.351563 1.328125 1.042969 1.496094 1.425781.171875.382813.402344 1.160157.050781 2.066407l-7.71875 19.976562c-.351562.90625-1.042969 1.328125-1.425781 1.496094s-1.15625.398437-2.066406.050781l-9.988282-3.859375c-43.605468-16.847656-91.589843-29.953125-142.617187-38.949219-46.363281-8.175781-91.515625-12.304687-134.4375-12.304687-4.324219 0-8.625.042969-12.902344.125l-10.703125.210937c-.992187.035157-1.625-.464843-1.925781-.753906-.300781-.289062-.808594-.921875-.828125-1.894531l-.421875-21.410156c-.019531-.972657.464844-1.621094.753906-1.925781.292969-.300782.921875-.808594 1.894531-.828126l10.707032-.207031c48.46875-.960937 99.785156 3.277344 152.519531 12.578125 52.738281 9.300782 102.40625 22.871094 147.625 40.34375zm50.710938-58.136719-7.71875 19.972657v.003906c-.347656.90625-1.042969 1.324219-1.425782 1.492187-.378906.171876-1.15625.402344-2.066406.050782l-9.988281-3.859375c-55.035156-21.261719-115.308594-37.75-179.140625-49.003907-57.945312-10.21875-114.601562-15.378906-168.691406-15.378906-5.492188 0-10.96875.050782-16.410156.160156l-10.703126.207032c-.996093.050781-1.625-.460938-1.925781-.75-.300781-.292969-.8125-.921875-.828125-1.898438l-.421875-21.40625c-.019531-.976562.464844-1.625.753907-1.925781.289062-.300781.921874-.8125 1.894531-.832031l10.703125-.207032c60.730468-1.195312 124.746094 4.0625 190.285156 15.621094 65.539062 11.554688 127.496094 28.511719 184.148438 50.402344l9.988281 3.855469c.910156.351562 1.328125 1.046875 1.496093 1.429687.171876.382813.402344 1.15625.050782 2.066406zm0 0"/><path d="m261.742188 127.472656h20.644531c4.140625 0 7.5-3.359375 7.5-7.5 0-4.144531-3.359375-7.5-7.5-7.5h-20.644531c-4.144532 0-7.5 3.355469-7.5 7.5 0 4.140625 3.355468 7.5 7.5 7.5zm0 0"/><path d="m332.742188 140.128906h-71c-4.140626 0-7.5 3.355469-7.5 7.5 0 4.140625 3.359374 7.496094 7.5 7.496094h71c4.140624 0 7.5-3.355469 7.5-7.496094 0-4.144531-3.359376-7.5-7.5-7.5zm0 0"/><path d="m332.742188 163.113281h-71c-4.140626 0-7.5 3.355469-7.5 7.5 0 4.140625 3.359374 7.5 7.5 7.5h71c4.140624 0 7.5-3.359375 7.5-7.5 0-4.144531-3.359376-7.5-7.5-7.5zm0 0"/></svg>