<svg xmlns="http://www.w3.org/2000/svg" width="24" height="24" viewBox="0 0 24.685 23.658">
  <path id="Path_3909" data-name="Path 3909" d="M11.48,20.7a1.029,1.029,0,0,1-1.254.3c-2.836-1.352-2.714-1.038-2.746-2.6l-1.6-.742c.028,1.3-.192,2.934,1.512,3.746,2.277,1.085,2.512,1.272,3.258,1.272a3.067,3.067,0,0,0,2.545-1.62l-1.469-.681ZM17.922,4.83a3.478,3.478,0,0,0-2.638,1.488l-11.6,5.469a3.408,3.408,0,0,0,0,4.085l11.6,5.469a3.463,3.463,0,0,0,2.638,1.488c2.653,0,4.8-4.028,4.8-9S20.574,4.83,17.922,4.83Zm-4.507,5.958L5.5,13.351a.511.511,0,0,1-.648-.333.519.519,0,0,1,.277-.629l9.028-4.113A12.305,12.305,0,0,0,13.414,10.788Zm4.507,10.427c-1.469,0-3.183-3.225-3.183-7.385s1.709-7.385,3.183-7.385S21.1,9.67,21.1,13.83,19.4,21.215,17.922,21.215ZM15.87,11.5a.575.575,0,0,0-.089.009,7.209,7.209,0,0,0-.347,2.014c0,.094,0,.188,0,.286a6.98,6.98,0,0,0,.38,2.343c.019,0,.038,0,.061,0a2.329,2.329,0,0,0,0-4.657Z" transform="matrix(0.94, -0.342, 0.342, 0.94, -4.473, 3.232)" fill="#82919b"/>
</svg>
